<?xml version="1.0" standalone="no"?>
<!DOCTYPE svg PUBLIC "-//W3C//DTD SVG 20010904//EN"
 "http://www.w3.org/TR/2001/REC-SVG-20010904/DTD/svg10.dtd">
<svg version="1.0" xmlns="http://www.w3.org/2000/svg"
 width="512.000000pt" height="512.000000pt" viewBox="0 0 512.000000 512.000000"
 preserveAspectRatio="xMidYMid meet">

<g transform="translate(0.000000,512.000000) scale(0.100000,-0.100000)"
fill="currentColor" stroke="none">
<path d="M801 4642 c-310 -263 -563 -483 -562 -488 1 -5 219 -265 484 -578
265 -312 483 -571 485 -575 1 -4 -22 -15 -51 -24 -29 -9 -72 -33 -95 -53 -210
-180 -143 -591 174 -1059 52 -77 105 -154 119 -170 l24 -31 -236 -199 -236
-200 -49 3 c-66 5 -110 -12 -152 -58 -70 -77 -55 -193 32 -254 109 -77 259 -4
267 129 2 24 6 48 9 54 4 5 110 98 237 206 l231 196 128 -125 c283 -276 578
-445 808 -463 149 -11 279 52 332 162 l22 45 91 -108 c51 -60 272 -320 492
-580 346 -409 401 -470 415 -458 8 7 264 223 568 480 l552 468 -39 47 c-21 25
-312 368 -645 760 -333 393 -606 717 -605 720 0 4 56 53 125 110 69 57 123
107 122 111 -9 22 -931 1099 -938 1095 -4 -3 -61 -50 -126 -105 -65 -55 -121
-100 -124 -100 -4 0 -287 332 -631 737 -343 405 -633 747 -644 760 l-20 23
-564 -478z m719 46 l171 -201 -23 -23 c-72 -71 -864 -732 -870 -726 -4 4 -81
95 -172 202 l-165 195 27 27 c28 27 854 728 859 728 1 0 79 -91 173 -202z
m469 -553 c106 -124 194 -231 197 -238 5 -13 -858 -752 -877 -752 -5 0 -97
103 -204 230 -155 183 -192 232 -182 242 11 11 870 741 873 742 1 1 88 -100
193 -224z m430 -507 c61 -73 110 -136 109 -140 -2 -4 -175 -154 -386 -332
l-383 -325 -59 35 c-57 33 -181 87 -230 99 -14 3 -32 15 -39 27 -11 18 -10 24
11 43 46 45 852 725 859 725 4 0 57 -59 118 -132z m-998 -814 c120 -36 297
-139 455 -266 339 -273 653 -725 739 -1064 21 -83 24 -215 6 -266 -17 -52 -70
-95 -126 -104 -125 -18 -344 71 -551 225 -99 73 -272 228 -308 275 l-26 35
129 108 c71 59 130 110 130 113 0 3 -23 31 -52 63 l-53 59 -129 -111 -130
-111 -28 33 c-62 70 -193 278 -248 392 -69 142 -104 244 -120 345 -24 155 12
254 106 289 37 13 134 6 206 -15z m2170 -569 c60 -71 109 -132 109 -137 0 -5
-768 -661 -863 -737 -27 -21 -43 1 -51 71 -3 34 -23 113 -45 175 l-38 113 381
325 c210 178 385 323 389 322 4 -1 57 -61 118 -132z m404 -476 c98 -116 187
-221 197 -234 l18 -23 -417 -353 c-230 -195 -430 -364 -444 -377 l-27 -22
-193 226 c-105 125 -192 233 -193 241 -1 11 859 752 875 753 3 0 85 -95 184
-211z m504 -594 c88 -104 161 -192 160 -195 0 -5 -788 -673 -858 -728 l-29
-23 -172 202 -171 202 23 23 c13 12 212 183 443 378 330 280 422 353 431 343
7 -6 85 -97 173 -202z"/>
</g>
</svg>
